<?xml version="1.0" encoding="UTF-8"?><svg xmlns="http://www.w3.org/2000/svg" viewBox="0 0 187.59 94.11"><defs><style>.d{fill:none;}.e{fill:red;}</style></defs><g id="a"/><g id="b"><g id="c"><g><g><path class="e" d="M108.27,66.2s-.07,.04-.1,.06h0l.26-.14-.17,.08Z"/><g><path class="e" d="M140.9,83.62c-2.53,1.49-5.85,2.56-9.62,3.09l-.89,.13,.81,.4c2.17,1.06,3.95,1.59,5.41,1.59,.75,0,1.42-.14,1.99-.42,1.36-.67,2.24-2.14,2.71-4.49l.12-.61-.53,.31Zm-2.54,4.28c-1.38,.68-3.38,.43-6.09-.78,3.21-.53,6.07-1.46,8.37-2.71-.46,1.84-1.18,2.96-2.28,3.49Z"/><path class="d" d="M140.63,84.41c-.46,1.84-1.18,2.96-2.28,3.49-1.38,.68-3.38,.43-6.09-.78,3.21-.53,6.07-1.46,8.37-2.71Z"/></g><path class="e" d="M187.44,27.57c-3.7-4.09-7.65-6.2-11.71-6.28-5.3-.11-9.59,3.31-11.76,5.47-.93-.63-1.89-1.26-2.87-1.87,2.35-4.04,4.92-9.16,4.14-11.1-.16-.39-.43-.65-.83-.77-2.08-.61-7.37,3.16-11.75,7.19-.11-.05-.21-.11-.32-.16l-.22-.11c-1.44-3.69-3.69-6.65-6.7-8.79-.23-.17-.54-.16-.77,.02-.22,.18-.3,.47-.19,.73,.71,1.74,1.1,3.16,.73,4.27-1.32-2.04-3.34-3.61-6.02-4.66-.31-.12-.63-.01-.81,.26-.18,.27-.15,.61,.08,.85,.83,.86,1.52,1.78,2.04,2.74-1.83-.56-3.65-1.03-5.42-1.41,2.05-3.99,2.82-6.63,2.31-7.83-.16-.37-.43-.62-.81-.73-2.09-.62-7.42,3.18-11.81,7.25h-.32c-1.81-.06-3.63,0-5.41,.14-.85-4.83-4.3-12.64-17.67-12.8h-.19l-.07,.18c-.04,.11-1.03,2.7-.46,6.75,.52,3.7,2.49,9.34,8.94,15.33-.23,.51-.47,1.03-.71,1.57-.26,.61-.53,1.24-.78,1.89-.18,.43-.35,.88-.52,1.33l-.25,.68c-.24,.69-.49,1.41-.73,2.14-.31,.98-.61,1.99-.88,3.02-.14,.52-.27,1.04-.4,1.58-.19,.83-.35,1.58-.49,2.31-.63,3.31-.96,6.62-.96,9.84,0,.79,.02,1.53,.06,2.26,.27,5.86,1.63,11.53,4.05,16.86-.06,.03-.11,.06-.16,.08-2.86,1.68-4.18,4.13-3.92,7.25,.87,10.47,12.28,14.85,23.24,14.54,2.75,1.72,6.32,3.46,9.49,3.46,1.06,0,2.08-.19,3.01-.65,2.45-1.2,3.92-4.05,4.36-8.47,1.37-1.41,2.12-2.97,2.23-4.64,.11-1.58-.17-3.1-.83-4.5,3.65-2.13,8.83-5.8,13.2-11.35,5.22-6.62,8.1-14.31,8.54-22.89,6.21,.67,11.37-2.21,14.63-4.77,3.58-2.81,5.69-5.85,5.71-5.89l.13-.18-.15-.17Zm-41.78,49.7c-.11,1.57-.83,3.03-2.15,4.36l-.07,.07v.09c-.42,4.27-1.79,7.01-4.07,8.13-3.5,1.72-8.48-.59-12.04-2.83l-.07-.04h-.08c-10.71,.32-21.9-3.88-22.75-14.02-.24-2.9,.98-5.17,3.64-6.73,.03-.02,.07-.04,.1-.06,.03-.02,.07-.03,.1-.06l.17-.08c5.69-3.11,16.45-3.55,25.03-1.02,1.41,.42,2.72,.9,3.92,1.44,.29,.14,.59,.28,.87,.42,.57,.28,1.11,.58,1.62,.9,.48,.29,.93,.6,1.36,.92,.14,.11,.28,.22,.41,.32,.33,.26,.63,.52,.92,.8,.1,.09,.19,.18,.28,.28,.83,.83,1.48,1.72,1.94,2.65,.69,1.39,.99,2.88,.88,4.45Zm21.24-39.29l-.29-.03-.02,.3c-.34,7.49-2.55,14.31-6.58,20.32-9.86,4.98-12.61-.44-20.58,3.07-2.08,.92-3.97,1.93-5.57,2.98-.07-.02-.15-.04-.22-.07-1.45-.43-2.96-.77-4.5-1.03-.57-.1-1.14-.18-1.72-.26l-.27-.03c-.58-.07-1.16-.13-1.74-.18h-.06c-.6-.05-1.21-.09-1.8-.12h-.06c-.6-.03-1.2-.04-1.79-.04h-.12c-.62,0-1.23,.01-1.83,.04-.26,.01-.51,.03-.76,.04-.37,.02-.73,.05-1.09,.08-.31,.03-.61,.06-.91,.09s-.59,.07-.89,.11c-.59,.08-1.17,.17-1.73,.28-.23,.04-.46,.09-.69,.14-.07,.01-.13,.03-.2,.04-.26,.06-.51,.12-.76,.18-.24,.06-.47,.12-.71,.19-.31,.09-.62,.18-.92,.28-.2,.06-.4,.13-.59,.21-.02,0-.05,.01-.07,.02-.22,.08-.43,.16-.64,.25-.03,0-.06,.02-.08,.03-.16,.06-.31,.13-.46,.2-.09,.03-.18,.08-.26,.12-.13,.06-.27,.12-.39,.19-.05,.02-.09,.04-.14,.07-2.36-5.23-3.69-10.79-3.97-16.54,1.82,.54,3.21,.65,4.27,.41-.03-.04-.04-.08-.07-.13-1.37-2.91-1.97-6.68-1.71-10.6,.56-8.34,4.79-14.64,9.85-14.64,.14,0,.27,0,.41,.02,2.29,.15,4.38,1.61,5.87,4.11,.21,.34,.4,.71,.58,1.09,2.27,.14,4.77,.36,8.2-2.54,5.69-4.82,4.48-7.66,.31-12.98-2.26-.38-4.58-.64-6.94-.74,4.93-4.54,9.59-7.48,11.16-7.01,.22,.06,.36,.19,.46,.41,.44,1.04-.43,3.77-2.46,7.68l-.17,.32,.36,.08c2.07,.43,4.2,.99,6.35,1.67l.61,.19-.27-.57c-.58-1.22-1.41-2.39-2.44-3.47-.06-.06-.04-.11-.02-.15,.02-.03,.07-.08,.15-.04,2.76,1.07,4.78,2.71,6.02,4.87l.24,.42,.24-.42c.88-1.53,.2-3.49-.5-5.22,0-.01-.02-.05,.03-.08,.02-.02,.06-.04,.1,0,2.94,2.09,5.14,4.99,6.54,8.63l.04,.1,.42,.21c.16,.08,.33,.16,.49,.24l.17,.08,.14-.13c4.99-4.64,9.77-7.67,11.36-7.2,.23,.07,.38,.21,.47,.44,.54,1.36-1.01,5.32-4.24,10.85l-.14,.23,.23,.14c1.12,.7,2.22,1.42,3.27,2.13l.19,.13,.17-.17c2.06-2.09,6.29-5.59,11.51-5.48,3.85,.08,7.6,2.08,11.16,5.94-1.09,1.48-9,11.59-19.98,10.2Z"/><path class="e" d="M140.63,84.41c-.46,1.84-1.18,2.96-2.28,3.49-1.38,.68-3.38,.43-6.09-.78,3.21-.53,6.07-1.46,8.37-2.71Z"/><path class="e" d="M145.54,47.54s17.67-10.62,.34-5.13c-17.33,5.48-5.78,9.73-1.52,10.55s18.94,1.33,1.18-5.41Z"/><path class="e" d="M119.85,39.93c-2.42-.16-4.24-2.25-4.08-4.67,.17-2.42,2.26-4.24,4.67-4.08,.68,.04,1.31,.25,1.87,.57-.31-.93-.68-1.77-1.12-2.49-1.07-1.8-2.49-2.93-4.11-3.03-3.88-.26-7.41,5.36-7.89,12.56-.25,3.67,.34,7.04,1.5,9.5,1.11,2.36,2.73,3.88,4.63,4.01,3.87,.26,7.4-5.37,7.89-12.56,.02-.37,.04-.73,.04-1.08-.86,.87-2.08,1.37-3.4,1.28Z"/><ellipse class="e" cx="114.61" cy="73.61" rx="3.21" ry="6.43" transform="translate(-12.53 24.74) rotate(-11.69)"/><ellipse class="e" cx="135" cy="76.34" rx="6.43" ry="3.21" transform="translate(-3.82 145.51) rotate(-55.97)"/></g><g><path class="e" d="M30.19,32.75c-.47-2.65-1.79-4.22-4.05-3.82-4.19,.74-6.73,4.25-14.7,20.95-.18,.03-.2-.09-.2-.09,.15-.37,1.81-5.53,1.81-5.53,2.43-7.26,4.33-12.66,4.62-13.08,.04-.1,.05-.22,.04-.31-.06-.33-.44-.56-.71-.52-.12,.02-.14,.08-.21,.22-2.09,5.37-7.1,8.42-12.3,9.34-3.39,.6-3.54-.6-3.99-.52-.36,.06-.58,.71-.51,1.07,.18,1.01,2.49,.94,3.86,.7,4.76-.84,8.18-2.79,11.03-6.45,.08-.07,.07-.11,.16-.12,.06-.01,.08,.08,.08,.08-2.83,8.1-8.18,20.54-10.59,25.81-.18,.37-.16,.49-.14,.61,.08,.45,.98,.35,2.53,.08,.86-.15,1.1-.72,1.55-1.83,7.91-19.48,13.28-28.09,16.61-28.68,1.34-.24,2.16,.78,2.47,2.54,1.16,6.6-4.75,23.82-15.66,25.75-.47,.08-.99,.14-1.29,.17-.24,.04-.32,.24-.29,.45,.13,.71,.9,.61,1.35,.53,13.53-2.39,19.89-19.51,18.51-27.33Z"/><path class="e" d="M28.9,56.3c.9-.16,2.06-.94,3.3-2.36,0,.08,0,.17,.01,.25,.16,.89,.73,1.34,1.82,1.15,2.35-.41,5.42-4.36,6.04-5.23,.1-.14,.15-.18,.21-.19,.09-.02,.16,.03,.18,.12,.08,.29-5.15,10.41-9.27,11.38-.41,.1-.58,.19-.56,.28,.03,.15,.69,.25,1.34,.13,7.4-1.31,12.41-15.49,13.92-18.43,.02-.07,.04-.1,.03-.16-.04-.24-.56-.24-1.1-.14-.36,.06-1.03,.27-1.24,.59-.31,.48-.92,1.57-1.33,2.2-1.12,1.67-4.49,6.16-6.87,6.58-.3,.05-.48-.1-.53-.4-.37-2.08,4.59-11.35,9.82-12.28,1.4-.25,1.58,1.31,1.64,1.3,.45-.08,1.13-1.09,1.01-1.77-.08-.45-.5-.77-1.54-.59-7.18,1.27-13.17,10.26-13.56,14.48-.74,.96-1.33,1.48-1.76,1.56-.42,.07-.72-.27-.86-1.04-.41-2.35,2.95-8.49,4.41-11.17,.02-.07,.04-.1,.03-.16-.04-.24-.38-.27-.92-.17-.83,.15-.95,.17-1.54,.98-1.54,2.2-4.96,9.06-4.51,11.62,.2,1.13,.9,1.65,1.85,1.48Z"/><path class="e" d="M34.72,39.95c1.37-.24,2.46-1.69,2.21-3.09-.17-.95-1.01-1.57-2.05-1.39-1.34,.24-2.43,1.69-2.18,3.08,.17,.98,.98,1.57,2.02,1.39Z"/><path class="e" d="M47.46,53.03c1.26-.22,3.01-1.65,4.81-4.36-.05,.52-.07,1,0,1.4,.21,1.19,.99,1.79,2.56,1.51,.95-.17,2.16-1.03,3.47-2.66,0,.03,0,.06,0,.09,.16,.92,.77,1.4,1.9,1.2,2.35-.41,5.36-4.56,5.97-5.44,.1-.14,.15-.18,.21-.19,.09-.02,.16,.03,.17,.12-.38,1.14-.44,2.19-.31,2.97,.21,1.19,.89,1.74,1.84,1.57,1.19-.21,2.79-1.53,4.49-4.08-.05,.54-.05,1.01,.02,1.42,.2,1.13,.94,1.7,2.34,1.46,1.52-.27,3.7-2.31,5.91-6.47,.04-.1,.03-.16,.02-.22-.04-.21-.29-.26-.29-.26-2.07,3.58-3.51,5.46-4.37,5.61-.57,.1-.87-.21-.97-.81-.21-1.22,.41-3.75,1.51-6.76,6.13-6.78,13.96-18.16,13.39-21.4-.12-.68-.63-.99-1.59-.82-1.31,.23-5.41,5.86-9.13,12.27-.05-.05-.14-.06-.28-.03-.09,.02-1.51,.63-2.24,.88-4.24,1.51-9.23,3.13-14.11,4.45,2.66-3.87,4.54-7.3,4.3-8.66-.09-.51-.46-.71-1.18-.59-1.31,.23-4.99,5.08-8.22,10.55-1.53,.36-3,.65-4.4,.9,1.36-.25,2.45-1.69,2.2-3.09-.17-.95-1.01-1.57-2.05-1.39-1.34,.24-2.43,1.69-2.18,3.08,.17,.98,.98,1.57,2.02,1.39-.03,0-.06,.01-.08,.02-.24,.04-.33,.24-.29,.45,.13,.71,1.02,.59,1.47,.51,.89-.19,1.77-.4,2.59-.61-2.09,3.71-3.85,7.54-4.48,10.35-1.59,2.6-2.75,3.98-3.48,4.11-.42,.07-.72-.27-.86-1.04-.41-2.35,2.95-8.49,4.41-11.17,.02-.07,.04-.1,.03-.16-.04-.24-.38-.27-.92-.17-.83,.15-.95,.17-1.55,.98-1.54,2.2-4.96,9.06-4.51,11.62,.2,1.13,.9,1.65,1.85,1.48ZM88.4,18.8c.21-.04,.35,.06,.38,.27,.33,1.87-6.41,12.87-11.49,18.64,3.16-8.01,8.9-18.52,11.1-18.91Zm-22.64,8.31c.12-.02,.16,.03,.17,.12,.13,.71-1.58,3.9-3.93,7.47-.79,.2-1.55,.43-2.32,.59,2.21-4.31,4.67-7.93,6.07-8.18Zm-6.71,9.43l2.02-.51c-1.34,1.95-2.83,3.93-4.28,5.6,.65-1.68,1.42-3.41,2.26-5.09Zm-2.8,6.53c1.89-2.3,3.87-4.82,5.59-7.24,10-2.49,14.87-4.12,16.49-4.75-2.58,4.65-4.81,9.47-5.53,12.78-1.57,2.55-2.71,3.91-3.43,4.04-.42,.07-.72-.27-.86-1.04-.48-2.7,1.92-6.47,3.18-8.38,.48-.76,.97-1.43,1.13-1.73,.02-.07,.04-.1,.03-.16-.04-.24-.56-.24-1.1-.14-.27,.05-.5,.12-.67,.18-.7,.18-2.54,3.36-3.35,4.64-1.12,1.67-3.82,5.64-6.2,6.06-.33,.06-.51-.12-.57-.45-.37-2.08,4.2-10.79,9.37-11.71,1.4-.25,1.55,.8,1.61,.79,.15-.03,.88-.92,.78-1.49-.06-.33-.37-.52-1.29-.35-7.14,1.26-12.85,9.92-13.15,14-.94,1.32-1.67,2.04-2.18,2.13-.66,.12-1.02-.25-1.15-.93-.22-1.22,.32-3.55,1.29-6.24Z"/><path class="e" d="M62.36,85.51c-.3,.05-.58,.35-.61,.69-.28,3.79-2.27,6.25-4.71,6.68-1.58,.28-2.44-.82-2.78-2.76-1.44-8.15,6.08-31.42,6.57-33.87,.04-.13,.05-.25,.02-.37-.1-.56-.78-.63-1.32-.53-3.57,.63-10.83,14.72-12.14,17.35-.09,.2-.14,.27-.29,.29,2.71-6.7,5.15-13.54,5.71-15.41,.03-.16,.07-.32,.04-.47-.1-.59-.77-.9-1.28-.82-3.84,.68-11.17,17.51-14.61,23.18-.15,.21-.41,.29-.44,.29,1.33-2.87,5.11-13.41,8.73-21.77,.04-.1,.05-.22,.04-.31-.06-.33-.43-.51-.7-.46-.09,.02-.17,.06-.22,.16-3.4,6.79-12.89,14.17-19.55,15.34-3.39,.6-3.54-.6-3.99-.52-.36,.06-.58,.72-.51,1.07,.18,1.01,2.49,.94,3.86,.7,4.76-.84,12.58-5.65,17.62-11.66,0,0,.07-.11,.16-.12,.06-.01,.08,.08,.08,.08-.08,.23-2.76,6.43-11.98,24.92,0,0-.1,.29-.05,.56,.11,.62,.93,.57,1.85,.41,.83-.15,1.01-.36,1.69-1.4,6.73-10.69,13.92-27.28,16.5-27.74,0,0,.36-.06,.41,.21,.01,.06,.02,.09,0,.15-.4,1.39-1.49,5.26-9.33,20.99-.02,.03-2.6,5.09-2.52,5.5,0,0-.1,.29-.05,.56,.11,.62,.93,.57,1.85,.41,.83-.15,1.04-.34,1.68-1.4,3.85-6.47,12.04-26.43,15.58-27.06,.24-.04,.44,.05,.47,.22-1.57,8.49-8.47,24.82-7.2,31.98,.45,2.56,1.92,3.95,5.07,3.4,6.33-1.12,7.1-6.86,6.89-8.02-.07-.38-.3-.5-.54-.46Z"/><path class="e" d="M65.11,61.39c-1.34,.24-2.43,1.69-2.18,3.08,.17,.98,.98,1.57,2.02,1.39,1.37-.24,2.46-1.69,2.21-3.09-.17-.95-1.01-1.57-2.05-1.39Z"/><path class="e" d="M78.48,65.2c7.77-4.25,13.1-13.34,12.62-16.05-.1-.56-.45-.84-1.11-.72-4.67,.82-8.75,8.25-13.16,16.48-.78,.26-1.6,.5-2.4,.64-.47,.08-.99,.14-1.29,.16-.02,0-.03,.03-.05,.03,4.63-6.1,8.73-12.85,8.31-15.22-.12-.68-.63-.99-1.59-.82-2.38,.42-13.98,18.67-15.77,27.04-1.54,2.5-2.67,3.83-3.38,3.96-.42,.07-.72-.27-.86-1.04-.41-2.35,2.95-8.49,4.41-11.17,.02-.07,.04-.1,.03-.16-.04-.24-.38-.27-.92-.17-.83,.15-.95,.17-1.54,.98-1.54,2.2-4.96,9.06-4.51,11.62,.2,1.13,.9,1.65,1.85,1.48,1.24-.22,2.95-1.59,4.72-4.22-.05,.51-.04,.97,.03,1.36,.2,1.13,.94,1.7,2.34,1.46,.79-.14,1.76-.77,2.83-1.93,.2,.39,.57,.56,1.03,.48,.36-.06,.76-.22,.96-.47,1.74-1.96,4.35-6.96,6.2-8.97,2.37-2.56,4.03-3.71,4.78-3.85,.27-.05,.44,.05,.47,.22,.13,.71-1.53,2.97-5.41,5.8-.47,.3-.98,2.96-.62,5.01,.21,1.19,.89,1.74,1.84,1.57,1.52-.27,3.7-2.31,5.91-6.47,.04-.1,.03-.16,.02-.22-.04-.21-.29-.26-.29-.26-2.06,3.58-3.51,5.46-4.37,5.61-.42,.07-.72-.27-.86-1.04-.25-1.4-.04-4.07,.21-4.39,4.2-3.13,5.89-5.73,5.69-6.83-.08-.48-.49-.68-1.17-.56-1.37,.24-3.79,1.77-7,5.16-.12,.02-.15,0-.16-.06-.02-.09,.08-.26,.08-.26,.6-1.12,1.32-2.56,2.14-4.18Zm10.88-15.65c.36-.06,.57,.11,.63,.47,.37,2.08-3.97,10.14-10.86,13.87,3.08-6.15,7.07-13.78,10.22-14.34Zm-9.7,2.05c.21-.04,.35,.06,.38,.27,.33,1.87-6.41,12.87-11.49,18.64,3.16-8.01,8.9-18.52,11.1-18.91Zm-10.29,26.16c-.8,1.06-1.43,1.65-1.89,1.73-.57,.1-.87-.21-.97-.81-.21-1.22,.41-3.75,1.51-6.76,1.57-1.73,3.24-3.77,4.86-5.89,0,.04-.03,.08-.02,.13,.13,.71,.97,.81,1.42,.73,.62-.14,1.2-.33,1.8-.56-2.13,3.91-4.32,7.92-6.7,11.43Z"/></g></g></g></g></svg>