<?xml version="1.0" encoding="UTF-8"?><svg xmlns="http://www.w3.org/2000/svg" viewBox="0 0 137.35 20.85"><defs><style>.d{fill:red;}</style></defs><g id="a"/><g id="b"><g id="c"><g><path class="d" d="M1.64,6.17c.57-.77,1.29-.7,1.77-1.34,.5-.63,.2-1.59,.86-2.08,.77-.59,1.56,.11,2.27-.16,.57-.23,.68-1.13,1.43-1.45,.91-.39,1.65,.79,1.09,1.86-.38,.73-1.09,1.09-1.18,1.81-.09,.7,.25,1.68,.04,2.52-.29,1.18-1.41,1.65-1.5,2.52-.09,.88,.11,1.38-.09,2.22-.2,.86-1.59,1.65-1.02,2.24,.54,.57,1.4-.7,2.15-.77,1.47-.14,1.65,1.79,.36,2.45-.97,.48-1.61-.2-2.22-.07-.59,.14-.75,.68-1.4,.7-.68,.02-.97-.5-1.54-.57-.59-.07-.95,.61-1.7,.48-1.25-.23-1.31-2.11,.02-2.4,1.06-.23,1.83,.68,2.47,.04s.14-1.93,.45-2.83c.34-.97,1-1.2,1.11-1.86,.09-.52-.04-1.09,.23-1.77,.27-.68,.91-1.02,1.16-1.68,.29-.84-.45-1.61-1.2-1-.97,.79-1.47,2.83-2.54,3.06-1.02,.2-1.7-1-1.02-1.93Z"/><path class="d" d="M18.13,.36c1.04,.27,.45,1.18,.45,1.65s.43,.88,.27,1.56c-.23,.97-1.38,1.2-1.86,2.18-.25,.52-.27,1.02-.59,1.77-.38,.91-2.11,2.33-2.63,3.67-.27,.7,.02,1.11-.14,1.7-.2,.75-.59,1.29-.57,1.68,.09,1.41-.43,2.22-1.5,2.56-.77,.25-1.43-.07-1.65-.79-.16-.5,.18-1.38,.61-1.99,.36-.52,.27-1.02,.61-1.45s.79-.5,1.04-1.13c.43-1.09,.18-2.13,.57-3.2,.41-1.11,2.65-3.15,3.35-3.92,1.56-1.72-.59-1.93-.43-3.06,.16-1.16,1.36-1.52,2.45-1.22Z"/><path class="d" d="M28.3,12.94c-.14-.82-.91-1.06-.86-2.04,.02-.57,.66-1.29,1.52-1.29s1.36,.54,1.36,1.22c0,.77-.39,1.38-.32,1.9,.07,.48,.57,.68,.61,1.38,.05,.66-.48,1.2-1,1.36-.93,.27-1.9,.11-2.61,.43-.68,.32-1.34,1.07-2.33,.91-1.07-.16-1-1.54-2.2-1.54-1.36,0-1.77,1.36-2.97,1.36-1.29,0-1.5-1.47-.54-2.51,.72-.79,1.63-.82,2.33-1.56,.72-.77,1.18-2.54,2.04-3.42,.88-.93,2.47-1.38,3.29-2.9,.73-1.34-.59-2.65-1.74-1.72-.59,.48-.88,1.9-1.63,2.36-1.34,.82-2.47-.91-1.31-2.2,.5-.57,1.2-.59,1.9-1.27,.73-.7,.75-1.77,1.9-1.97,1.2-.2,1.27,1,1.81,1.68,.61,.77,1.65,.63,1.79,1.72,.16,1.36-1.45,2.02-2.13,2.85-.63,.79-.82,1.9-1.63,2.95-.84,1.09-1.77,1.22-2.54,1.93-.52,.48-.38,1.11,.25,1.2,.7,.09,1.43-.2,2.06-.07,.59,.14,.88,.59,1.65,.73,.82,.14,1.43-.66,1.29-1.47Z"/><path class="d" d="M44.93,1.34c.88-.27,1.13-1.16,2.02-1.16,.61,0,1.09,.38,1.11,1.02,.02,.73-.93,1-1.72,1.88-.82,.93-.52,2.97,.63,3.24,.93,.23,2.11-.2,2.06-1.27-.02-.91-1.16-.95-1.2-1.79-.02-.61,.48-.88,.97-.88,.57,0,.86,.61,1.54,.61,.75,0,1.31-.43,1.95-.38,.59,.04,.91,.59,.88,1.18-.07,1.36-2.04,1.45-2.45,2.4-.34,.79-.02,1.72-.02,2.88,0,1.04-1.06,1.65-.48,2.47,.59,.82,.97,.27,1.81,.38,.93,.14,1.2,1.5,.29,1.95-.41,.2-1.07,.07-1.77,.18-.68,.11-1.77,.91-2.58,.88-.7-.02-1.2-.41-1.31-.93-.11-.43,.11-1.11,.7-1.25,.52-.11,1.13,.14,1.38-.36,.23-.45-.43-1.04-.41-1.83,.02-.75,.57-1.13,.61-1.88,0-.88-.66-1.02-1.06-.66-.43,.39-.41,1.75-1.02,2.22-.73,.54-1.88,.36-1.93-.75-.02-.82,.63-.93,.61-1.63-.02-.63-.7-.66-.84-1.13-.16-.5,.09-1.16,0-1.59-.11-.52-.75-.82-1.09-.16-.61,1.18,.23,2.22-.02,3.58-.25,1.13-1.16,1.88-1.29,2.79-.11,.59,.32,1,.18,1.7-.18,.84-1.38,1.22-1.09,1.77,.29,.52,1.52,.05,2.17,.32,.57,.23,.54,1.65-.61,1.84-.91,.14-1.86-.41-2.61-.41-.7,0-1.47,.41-2.08,.36-1.41-.11-2.2-1.41-1.2-2.27,.7-.61,1.75,.14,2.29-.23,.77-.52,.18-2.65,.66-3.47,.48-.73,1.36-.95,1.47-1.9,.14-.91-.18-1.59-.14-2.49,.05-1.22,1.27-2.27,1.25-2.92-.02-.7-1.45-.52-1.47-1.38-.02-.73,.84-1.07,1.31-1.07,.52,0,1.5,.43,2.47,.14Z"/><path class="d" d="M53.42,10.52c.27-1.5,2.45-.29,2.61-2.22,.11-1.18,.57-3.38,2.74-3.38,1.07,0,1.68,.88,1.75,1.99,.2,2.86-4.76,4.87-3.67,6.28,.93,1.2,2.49-1.72,4.21-1.72,.82,0,1.7,.59,1.7,1.61s-.63,1.4-1.2,1.4c-.68,0-.75-.61-1.38-.59-1.36,.04-1.47,2.29-3.29,2.29-1.61,0-2.04-.93-2.04-1.86,0-1.07,.77-1.56,.77-2.2s-.63-.25-1.27-.36c-.63-.14-1.07-.57-.93-1.25Zm5.17-3.72c-.57-.34-1.5,1.81-.88,2.08,.66,.29,1.59-1.63,.88-2.08Z"/><path class="d" d="M69.03,4.8c.79,0,1.09,.84,1.77,1.2,.7,.39,1.75,.2,1.75-.93,0-.97,.09-1.81,.97-1.81s1.25,1.04,1.25,1.81c0,1.88-1.5,1.54-1.77,2.61-.18,.7,.29,1.52-.09,2.13-.38,.59-.95,.32-1.36,.57-.5,.32-.66,1.04-1.43,1.22-.72,.18-1.72-.43-2.51-.48-.66-.04-1.45,.32-1.54,1.07-.07,.77,.66,1.47,1.54,1.61,1.25,.18,1.77-.72,2.81-.45,.82,.2,.82,.88,1.45,1.54,.59,.61,1.56,.88,1.38,2.33-.18,1.52-1.4,1.54-2.58,2.22-.82,.48-1.13,1.18-2.24,1.2-.88,.02-1.93-.5-2.86-.88-.97-.41-2.11-.43-2.47-1.81-.43-1.61,1.72-2.7,1.81-3.85,.07-.86-.84-1.25-.75-2.24,.11-1.13,1.65-1.16,1.77-1.99,.09-.82-1.22-1.59-.5-2.74,.73-1.16,1.29-.45,1.97-1.13,.66-.68,.72-1.18,1.63-1.18Zm-2.56,10.4c-1.43,.54-1.31,3.06-.27,3.33,.86,.25,1.31-.32,2.08-.45,.72-.14,1.06,.18,1.77,0,.97-.25,1.25-1.4,.63-1.95-.45-.41-1.02-.04-1.7-.25-.54-.18-1.27-1.13-2.51-.68Zm2.76-8.32c-.38-.02-.54,.36-.86,.61-.34,.25-.79,.34-1.09,.93-.32,.63,.18,1.31,.91,1.29,.61-.02,1-.5,1.52-.66,.52-.16,.7,.14,1.2-.09,.5-.23,.68-.97,.34-1.25-.32-.32-.77,.04-1.2-.07-.39-.14-.39-.75-.82-.77Z"/><path class="d" d="M80.02,5.94c.63-.63,.14-1.97,1.22-2.2,.86-.18,.84,.54,1.54,.72,.59,.16,1.16-.59,1.95-.25,.57,.25,.63,1.02,.38,1.45-.29,.5-.82,1-.88,1.68-.07,.63,.32,1.02,.11,1.68-.29,.93-1.61,1.29-1.75,2.08-.16,.91,.48,1.83,1.27,1.9,.91,.07,1.2-.75,1.99-1.2,.68-.38,1.59,.2,1.18,1.18-.41,1-1.31,.95-1.97,1.68-.73,.79-1.13,2.4-2.4,2.15-.95-.18-1.02-1.54-.61-2.65,.38-1.04-1-1.36-1.45-.38-.41,.88-.59,2.27-1.7,2.33-.82,.04-1.22-.79-1.7-.91-.45-.11-1.5,.07-2.02-.14-1.65-.66-1.07-3.26,.32-3.51,.72-.14,1.09,.23,1.68-.09,.54-.29,.34-1.43,1.22-1.65,.86-.23,1.36,.27,2.27,.23,2.13-.11,2.67-4.33,1.9-4.55-.75-.23-1.68,2.95-3.4,3.24-1.59,.27-2.49-1.2-1.27-2.02,.59-.36,1.54-.2,2.11-.77Zm-3.74,7.34c-.02,.23,.11,.5,.72,.57,1.36,.16,2.54-.54,2.72-1.22,.16-.61-.09-.91-.5-.95-.5-.04-.75,.79-1.61,1.11-.61,.23-1.29,.04-1.34,.5Z"/><path class="d" d="M93.41,3.06c-.09,.93-.86,1.68-.54,2.06,.52,.61,1.5-.45,2.22-.34,1.22,.18,.29,2.27-1.09,2.49-.82,.14-1.95-.16-2.06,1.18-.07,.86,.43,1.54,.39,2.49-.05,1-1.56,2.36-1,2.7,.88,.52,2.17-1.81,3.26-1.9,1.09-.09,1.11,1.4,.16,2.33-.82,.79-1.16,.48-1.81,.88-.54,.34-1.25,1.86-2.61,1.65-.79-.11-1.2-.7-1.16-1.4,.07-.88,.61-1.5,.66-2.18,.05-.57-.29-1.2-.23-1.95,.09-.88,.88-1.88,1-2.74,.07-.48-.38-.93-.75-.86-.61,.11-.88,.73-1.79,.63-.75-.07-1.09-1.18,.36-1.65,.68-.23,.59-.72,1.22-.95,.57-.2,.93,.11,1.31-.27,.52-.52,.14-1.5,.16-2.31,.04-1.54,2.49-1.99,2.29,.14Z"/><path class="d" d="M98.64,2.22c-.05-.86,.86-1.04,1.61-1,.93,.07,1.31-1.16,2.45-1.22,.68-.02,.88,.34,.86,.79,0,.73-.93,1.36-.77,2.2,.11,.61,.14,1.43-.16,2.38-.29,.93-1.7,2.08-1.99,3.22-.23,.7,.27,1.13,.75,1.13,.68,0,1.56-1.43,2.36-1.43,.93,0,.82,1.27,1.27,1.74,.45,.48,1.27,.59,1.45,1.34,.2,.82-.18,2.31-.73,2.79-.45,.39-.88,.23-1.31,.57-.54,.43-.91,1.52-1.61,1.52-1.13,0-1.43-1.72-2.65-1.81-.93-.07-1.27,1.74-2.65,1.97-1.16,.18-1.9-.54-1.65-1.54,.32-1.25,2.13-1.04,2.81-2.2,.97-1.68-.09-3.26,.48-5.73,.27-1.68,2.7-4.08,2.2-4.67-.29-.34-.88,1-1.72,1.04-.57,.02-.93-.43-.97-1.09Zm4.28,8.13c-.86,0-1.83,1.02-1.79,1.95,.05,.91,.88,1.56,1.68,1.56,.7,0,1.65-.48,1.65-1.11,0-.82-.95-.54-1.09-1.04-.11-.38,.02-.75,.02-1,0-.23-.23-.36-.48-.36Z"/><path class="d" d="M110.24,6.14c.61-.29,1.13-1.25,2.13-1.18,.84,.07,1.25,.86,.93,1.95-.43,1.5-2.15,2.58-2.22,3.2-.04,.36,.2,.61,.2,1.09s-.43,1.61,.61,1.61c.68,0,1.43-.45,1.77-1.54,.32-1.02,.11-1.81,.34-2.58,.18-.63,.63-1,.84-1.4,.23-.48,.29-1.16,.88-1.43,.63-.29,1.52-.09,1.54,.59,.02,.7-.68,1.38-.68,1.93,0,.43,.25,.68,.09,1.25-.25,.84-1.45,1.81-1.63,3.42-.14,1.2,.25,1.43,.07,2.29-.2,1.02-1.13,1.5-1.5,2.02-.32,.48,.02,.86-.41,1.36-.41,.48-.86,.38-1.52,.88-.66,.5-.84,1.2-1.54,1.27-.7,.07-.88-.5-1.41-.72-.45-.2-1.59,.02-1.83-.68-.25-.63,.27-1.04,.36-1.54,.11-.61-.16-1,.29-1.77,.5-.84,1.97-1.07,2.06,0,.07,.93-.75,1.11-.79,1.83-.05,.59,.59,1,1.22,.59,.7-.45,.72-1.2,1.43-1.56,.61-.32,1.43-.63,1.81-1.59,.32-.79,0-1.65-.91-1.06-.97,.63-1.88,.82-2.4,.27-.68-.7-.32-1.4-.48-1.9-.16-.5-.66-.82-.68-1.52-.05-1.22,.86-1.59,1.59-2.31,.97-1,.59-1.83-.34-.91-.45,.45-.88,.88-1.5,.91-1.02,.04-1.86-1.41-.27-2.24,.86-.45,.93-.02,1.93-.5Z"/><path class="d" d="M125.07,3.06c-.09,.93-.86,1.68-.54,2.06,.52,.61,1.5-.45,2.22-.34,1.22,.18,.29,2.27-1.09,2.49-.82,.14-1.95-.16-2.06,1.18-.07,.86,.43,1.54,.39,2.49-.05,1-1.56,2.36-1,2.7,.88,.52,2.17-1.81,3.26-1.9,1.09-.09,1.11,1.4,.16,2.33-.82,.79-1.16,.48-1.81,.88-.54,.34-1.25,1.86-2.61,1.65-.79-.11-1.2-.7-1.16-1.4,.07-.88,.61-1.5,.66-2.18,.05-.57-.29-1.2-.23-1.95,.09-.88,.88-1.88,1-2.74,.07-.48-.38-.93-.75-.86-.61,.11-.88,.73-1.79,.63-.75-.07-1.09-1.18,.36-1.65,.68-.23,.59-.72,1.22-.95,.57-.2,.93,.11,1.31-.27,.52-.52,.14-1.5,.16-2.31,.04-1.54,2.49-1.99,2.29,.14Z"/><path class="d" d="M128.02,10.52c.27-1.5,2.45-.29,2.61-2.22,.11-1.18,.57-3.38,2.74-3.38,1.07,0,1.68,.88,1.75,1.99,.2,2.86-4.76,4.87-3.67,6.28,.93,1.2,2.49-1.72,4.21-1.72,.82,0,1.7,.59,1.7,1.61s-.63,1.4-1.2,1.4c-.68,0-.75-.61-1.38-.59-1.36,.04-1.47,2.29-3.29,2.29-1.61,0-2.04-.93-2.04-1.86,0-1.07,.77-1.56,.77-2.2s-.63-.25-1.27-.36c-.63-.14-1.07-.57-.93-1.25Zm5.17-3.72c-.57-.34-1.5,1.81-.88,2.08,.66,.29,1.59-1.63,.88-2.08Z"/></g></g></g></svg>