<?xml version="1.0" encoding="UTF-8"?><svg xmlns="http://www.w3.org/2000/svg" viewBox="0 0 123.46 18.2"><defs><style>.d{fill:red;}</style></defs><g id="a"/><g id="b"><g id="c"><g><path class="d" d="M9.35,16.38c-.57,.66-1.25,.36-2.02,.63-.86,.27-1.34,.75-2.24,.52-.93-.2-1.09-1.02-1.99-1.31-1.02-.34-2.29,.34-2.95-.61-.52-.75,.43-1.68,.66-2.51,.2-.77,0-1.65,.79-2.38,.79-.72,1.93-.34,1.97,.77,.04,1.2-1.27,1.38-.88,2.38,.41,1.04,1.5,.27,2.52,.54,.52,.14,.84,.77,1.31,.88,.61,.14,1.34-.02,1.43-.5,.09-.5-.29-.77-.25-1.25,.04-.52,.7-1.09,0-2.11-.86-1.29-2.49-.57-3.13-1.27-.48-.54-.18-1.22-.59-1.88-.41-.68-1.86-.77-1.59-2.47,.32-2.06,2.02-1.93,2.76-2.47,.82-.54,.66-2.13,1.84-2.13,1.27,0,1.47,2.02,2.13,2.54,.75,.59,1.45,.25,2.04,1,.57,.7,.11,2.2-1.16,2.04-1.41-.18-1.65-1.93-2.76-2.45-1.09-.5-2.29,.34-2.29,1.47,0,1.06,.84,.91,1.25,1.45,.41,.54,.09,1.13,.61,1.65,.91,.91,1.7,.18,2.72,.7,.77,.41,1.25,1.29,1.04,2.17-.27,1.18-1.04,1.25-1.09,1.95-.04,.68,.52,1.83-.14,2.63Z"/><path class="d" d="M11.89,10.85c.27-1.5,2.45-.29,2.61-2.22,.11-1.18,.57-3.38,2.74-3.38,1.07,0,1.68,.88,1.75,1.99,.2,2.86-4.76,4.87-3.67,6.28,.93,1.2,2.49-1.72,4.21-1.72,.82,0,1.7,.59,1.7,1.61s-.63,1.4-1.2,1.4c-.68,0-.75-.61-1.38-.59-1.36,.04-1.47,2.29-3.29,2.29-1.61,0-2.04-.93-2.04-1.86,0-1.07,.77-1.56,.77-2.2s-.63-.25-1.27-.36c-.63-.14-1.07-.57-.93-1.25Zm5.17-3.72c-.57-.34-1.5,1.81-.88,2.08,.66,.29,1.59-1.63,.88-2.08Z"/><path class="d" d="M22.53,7.84c0-.97,1.5-1.02,2.08-1.5,.59-.48,.88-1.77,2.02-1.77,1.38,0,.32,2.13,1.06,2.36,.97,.29,1.9-1.16,2.83-1.2,.75-.05,1.36,.34,1.34,1.25-.02,.77-.54,.84-.91,1.63-.39,.84-.14,2.97-1.43,3.04-.82,.04-1.02-.68-.73-1.52,.18-.5,.97-1.56-.11-1.9-.86-.27-1.4,.61-1.47,1.36-.09,.82,.11,1.29,.04,1.9-.09,.75-.91,2.08-.38,2.36,.52,.27,1.54-.43,2.38-.5,.61-.04,.82,.59,.7,1.11-.16,.68-.7,1.2-1.86,1.45-1.13,.25-2.15,.04-3.08,.41-1.11,.43-1.4,.93-2.36,.97-.79,.05-1.31-.79-.84-1.5,.63-.93,1.38-.45,2.08-1,.66-.5,1.04-1.09,1.43-2.38,.39-1.29,.29-2.45,.59-3.42,.32-1.07-.41-1.18-.88-.7-.45,.45-.75,.68-1.36,.68s-1.16-.36-1.16-1.13Z"/><path class="d" d="M35.92,6.05c.45-.34,.5-.79,.86-1.04,.75-.52,1.81,.14,1.43,1.31-.27,.84-1.09,1.61-1.04,2.24,.04,.7,.43,1,.52,1.72,.11,.84-.39,1.88-.54,2.79-.16,.95,.86,1.06,1.45-.18,.57-1.2,.36-2.31,.75-3.06,.5-.95,1.16-1.16,1.52-1.74s-.11-1.41,.54-1.9c.52-.41,1.18-.27,1.68-.36,.5-.09,.91-.59,1.52-.68,.82-.11,1.5,.93,.66,1.97-.77,.97-2.06,.73-2.63,1.41-.68,.82-.34,1.34-1.09,2.61-.63,1.09-1.61,1.52-1.88,2.13-.36,.82,0,1.16-.29,1.65-.29,.52-.88,.54-1.27,.93-.41,.41-.54,1.11-1.34,1.22-.82,.11-1.36-.45-1.45-1.2-.11-.88,.43-1.56,.39-2.24-.05-.84-.34-1.11-.41-1.81-.09-.91,.63-1.52,.52-2.47-.04-.41-.25-.79-.61-.77-.43,.02-.84,.52-1.36,.61-.57,.09-1-.2-1.16-.75-.18-.61,.27-1.18,1.22-1.52,.77-.27,1.59-.54,2.02-.86Z"/><path class="d" d="M44.76,10.85c.27-1.5,2.45-.29,2.61-2.22,.11-1.18,.57-3.38,2.74-3.38,1.07,0,1.68,.88,1.75,1.99,.2,2.86-4.76,4.87-3.67,6.28,.93,1.2,2.49-1.72,4.21-1.72,.82,0,1.7,.59,1.7,1.61s-.63,1.4-1.2,1.4c-.68,0-.75-.61-1.38-.59-1.36,.04-1.47,2.29-3.29,2.29-1.61,0-2.04-.93-2.04-1.86,0-1.07,.77-1.56,.77-2.2s-.63-.25-1.27-.36c-.63-.14-1.07-.57-.93-1.25Zm5.17-3.72c-.57-.34-1.5,1.81-.88,2.08,.66,.29,1.59-1.63,.88-2.08Z"/><path class="d" d="M55.4,7.84c0-.97,1.5-1.02,2.08-1.5,.59-.48,.88-1.77,2.02-1.77,1.38,0,.32,2.13,1.06,2.36,.97,.29,1.9-1.16,2.83-1.2,.75-.05,1.36,.34,1.34,1.25-.02,.77-.54,.84-.91,1.63-.39,.84-.14,2.97-1.43,3.04-.82,.04-1.02-.68-.73-1.52,.18-.5,.97-1.56-.11-1.9-.86-.27-1.4,.61-1.47,1.36-.09,.82,.11,1.29,.04,1.9-.09,.75-.91,2.08-.38,2.36,.52,.27,1.54-.43,2.38-.5,.61-.04,.82,.59,.7,1.11-.16,.68-.7,1.2-1.86,1.45-1.13,.25-2.15,.04-3.08,.41-1.11,.43-1.4,.93-2.36,.97-.79,.05-1.31-.79-.84-1.5,.63-.93,1.38-.45,2.08-1,.66-.5,1.04-1.09,1.43-2.38,.39-1.29,.29-2.45,.59-3.42,.32-1.07-.41-1.18-.88-.7-.45,.45-.75,.68-1.36,.68s-1.16-.36-1.16-1.13Z"/><path class="d" d="M73.68,1.99c.97,.07,1.31,.61,2.06,.57,.88-.04,1.59-.82,2.58-.91s2.2,.66,2.99,.63,1.16-.7,2.06-.84c.93-.14,1.47,.41,1.25,1.27-.18,.68-.63,.95-.84,1.52-.18,.57,.07,1.16-.11,1.65-.29,.7-1.45,.93-1.86,.05-.38-.88,.43-1.41-.23-2.02-.63-.61-1.68,.34-2.54,.32-.86-.02-1.52-.61-2.11-.2-.61,.39-.04,1.13-.04,1.77,0,.57-.77,1.13-.73,1.68,.07,.82,1.52,.93,2.04,.57,.66-.43,.77-1,1.34-1.29,.52-.29,1.13,.11,1.16,.84,.02,1-.82,1.7-1.04,2.36-.23,.73,.14,1.63-.23,2.27-.45,.75-2.11,.97-2.18-.68-.02-.52,.45-.68,.41-1.27-.07-.77-1.18-1.16-1.61-.48-.48,.73-.04,1.65-.11,2.33-.07,.7-.88,1.7-.54,2.33,.29,.54,1.25-.07,1.77,.27,.7,.45,.57,1.63-.43,1.93-1,.29-2.08-.09-2.97,0-.91,.09-1.75,.75-2.42,.59-1-.23-1.02-1.52-.07-2.13,1.04-.66,1.83,.02,2.31-.52,.54-.61-.34-1.86-.25-2.65,.09-.86,.91-1,.95-1.72,.04-.73-.41-1.59-.41-2.7,0-1.27,1.25-1.72,1-2.74-.18-.77-1.54-.23-2.22-.79-.7-.59-.2-2.08,1.02-1.99Z"/><path class="d" d="M83.47,7.84c0-.97,1.5-1.02,2.08-1.5,.59-.48,.88-1.77,2.02-1.77,1.38,0,.32,2.13,1.06,2.36,.97,.29,1.9-1.16,2.83-1.2,.75-.05,1.36,.34,1.34,1.25-.02,.77-.54,.84-.91,1.63-.39,.84-.14,2.97-1.43,3.04-.82,.04-1.02-.68-.73-1.52,.18-.5,.97-1.56-.11-1.9-.86-.27-1.4,.61-1.47,1.36-.09,.82,.11,1.29,.04,1.9-.09,.75-.91,2.08-.38,2.36,.52,.27,1.54-.43,2.38-.5,.61-.04,.82,.59,.7,1.11-.16,.68-.7,1.2-1.86,1.45-1.13,.25-2.15,.04-3.08,.41-1.11,.43-1.4,.93-2.36,.97-.79,.05-1.31-.79-.84-1.5,.63-.93,1.38-.45,2.08-1,.66-.5,1.04-1.09,1.43-2.38,.39-1.29,.29-2.45,.59-3.42,.32-1.07-.41-1.18-.88-.7-.45,.45-.75,.68-1.36,.68s-1.16-.36-1.16-1.13Z"/><path class="d" d="M93.32,10.85c.27-1.5,2.45-.29,2.61-2.22,.11-1.18,.57-3.38,2.74-3.38,1.07,0,1.68,.88,1.75,1.99,.2,2.86-4.76,4.87-3.67,6.28,.93,1.2,2.33-1.86,4.06-1.86,.79,0,.91,.72,1.68,.86,.68,.11,1.2-.41,1.9-.14,.86,.34,.5,1.31,1.22,1.63,.57,.25,.75-.36,1.45-.36s.75,.66,1.59,.48c.77-.16,1.16-2.47-.36-3.04-1.22-.45-3.96-.59-4.1-2.54-.09-1.22,.91-1.22,1.22-1.93,.25-.57-.14-1.84,1.4-1.84,1.77,0,1.2,1.27,2.18,1.77,.61,.32,1.2-.43,1.95,0,1.29,.75,.84,2.42-.38,2.42-.57,0-.5-.43-.88-.43s-1.16,.48-1.59,.11c-.41-.34,.11-1.56-.68-1.65-1.29-.16-.95,2.22,1.11,2.88,1.86,.59,2.88,1.99,2.88,3.42,0,.82-.18,1.59-.84,1.83-.5,.18-.88-.07-1.27,.34-.36,.39-.7,1.7-2.08,1.7-1.54,0-1.22-1.72-1.93-2.08-.61-.32-1.56,.04-2.38-.23-.77-.25-1.09-1.13-2.29-1.13-1.72,0-1.99,2.76-3.81,2.76-1.61,0-2.04-.93-2.04-1.86,0-1.07,.77-1.56,.77-2.2s-.63-.25-1.27-.36c-.63-.14-1.07-.57-.93-1.25Zm5.17-3.72c-.57-.34-1.5,1.81-.88,2.08,.66,.29,1.59-1.63,.88-2.08Z"/><path class="d" d="M116.55,1.63c.88-.61,1.36-1.65,2.22-1.63,.68,.02,.75,.54,1,.93,.23,.34,.66,.52,.61,1.13-.04,.72-.95,.97-1.34,1.79-.34,.7,.11,1.63-.27,2.36-.34,.63-1.47,1.95-.84,2.54,.68,.63,1.47-.54,2.33-1.09,.88-.54,2.13,.14,1.75,1.36-.39,1.22-1.07,1.43-1.13,2.29-.04,.54,.18,.75,.16,1.2-.02,.48-.5,1.56-.05,1.65,.54,.11,.95-.77,1.65-.84,.79-.07,1.04,1.06,.61,1.65-.29,.41-.68,.38-1,.61s-.5,.66-.88,.77c-.43,.14-.86-.09-1.36-.04-.43,.04-.84,.43-1.34,.48-.68,.07-1.29-.88-.5-1.54,.48-.41,.95-.38,1.11-1.09,.14-.61-.18-1.52-.11-2.04,.07-.54,1.09-1.65,.66-1.93-.41-.25-.79,.86-1.45,.88-.54,.02-.97-.66-1.5-.39-.84,.43-.02,1.34-.32,2.08-.2,.52-.88,.84-.75,1.38,.16,.61,1.5,.11,1.38,1.31-.11,1.11-1.59,1.02-2.4,1.38-.79,.36-1.38,1.27-2.47,1.34-1.25,.07-1.77-1.52-.59-2.29,.72-.48,1.4-.2,1.97-.59,.41-.34,.95-1.29,1-2.86,.02-.7-.43-1.56,.09-2.54,.54-1,.79-.79,1.34-1.83,.43-.82,.09-1.59,.32-2.33,.23-.77,.95-.93,1.31-2.06,.34-1.06-.45-1.06-.97-.63s-1.02,1.63-2.02,1.63-1.68-1.5-.41-2.38c.61-.43,1.59-.27,2.18-.68Z"/></g></g></g></svg>